<?xml version="1.0" encoding="UTF-8"?>
<svg width="12px" height="12px" viewBox="0 0 12 12" version="1.1" xmlns="http://www.w3.org/2000/svg" xmlns:xlink="http://www.w3.org/1999/xlink">
    <title>gallery-minimalistic-svgrepo-com</title>
    <g id="1.-Design" stroke="none" stroke-width="1" fill="none" fill-rule="evenodd">
        <g id="Článek-+-související-zápas" transform="translate(-1050, -1231)" fill="#FFFFFF">
            <g id="gallery-minimalistic-svgrepo-com" transform="translate(1050, 1231)">
                <path d="M0.878682,0.878682 C0,1.757358 0,3.17157 0,6 C0,8.8284 0,10.24266 0.878682,11.1213 C1.757358,12 3.17157,12 6,12 C8.8284,12 10.24266,12 11.1213,11.1213 C12,10.24266 12,8.8284 12,6 C12,3.17157 12,1.757358 11.1213,0.878682 C10.24266,0 8.8284,0 6,0 C3.17157,0 1.757358,0 0.878682,0.878682 Z M8.4,4.8 C9.06276,4.8 9.6,4.262742 9.6,3.6 C9.6,2.937258 9.06276,2.4 8.4,2.4 C7.73724,2.4 7.2,2.937258 7.2,3.6 C7.2,4.262742 7.73724,4.8 8.4,4.8 Z M2.592552,6.66228 C2.967006,6.31446 3.551946,6.33396 3.902382,6.70596 L5.4909,8.39214 C5.97054,8.90136 6.75576,8.96994 7.31646,8.55162 C7.68438,8.27718 8.1966,8.30838 8.52846,8.62542 L9.88914,9.92538 C10.06884,10.09704 10.35372,10.09056 10.52538,9.91086 C10.69704,9.73116 10.69056,9.44628 10.51086,9.27462 L9.15018,7.97466 C8.50074,7.3542 7.49826,7.29318 6.77832,7.83024 C6.5841,7.97514 6.31212,7.95138 6.14598,7.77504 L4.557474,6.08886 C3.867906,5.35686 2.716896,5.31846 1.98006,6.00282 L1.49376,6.4545 C1.31166,6.62364 1.301148,6.90834 1.470282,7.09044 C1.639416,7.27254 1.924146,7.2831 2.106246,7.11396 L2.592552,6.66228 Z" id="Shape"></path>
            </g>
        </g>
    </g>
</svg>