<?xml version="1.0" encoding="UTF-8"?>
<svg width="24px" height="24px" viewBox="0 0 24 24" version="1.1" xmlns="http://www.w3.org/2000/svg" xmlns:xlink="http://www.w3.org/1999/xlink">
    <title>gallery-minimalistic-svgrepo-com</title>
    <g id="1.-Design" stroke="none" stroke-width="1" fill="none" fill-rule="evenodd">
        <g id="Galerie" transform="translate(-332, -507)" fill="#01AEE2">
            <g id="galerie" transform="translate(308, 309)">
                <g id="gallery-minimalistic-svgrepo-com" transform="translate(24, 198)">
                    <path d="M1.757364,1.757364 C0,3.514716 0,6.34314 0,12 C0,17.6568 0,20.48532 1.757364,22.2426 C3.514716,24 6.34314,24 12,24 C17.6568,24 20.48532,24 22.2426,22.2426 C24,20.48532 24,17.6568 24,12 C24,6.34314 24,3.514716 22.2426,1.757364 C20.48532,0 17.6568,0 12,0 C6.34314,0 3.514716,0 1.757364,1.757364 Z M16.8,9.6 C18.12552,9.6 19.2,8.525484 19.2,7.2 C19.2,5.874516 18.12552,4.8 16.8,4.8 C15.47448,4.8 14.4,5.874516 14.4,7.2 C14.4,8.525484 15.47448,9.6 16.8,9.6 Z M5.185104,13.32456 C5.934012,12.62892 7.103892,12.66792 7.804764,13.41192 L10.9818,16.78428 C11.94108,17.80272 13.51152,17.93988 14.63292,17.10324 C15.36876,16.55436 16.3932,16.61676 17.05692,17.25084 L19.77828,19.85076 C20.13768,20.19408 20.70744,20.18112 21.05076,19.82172 C21.39408,19.46232 21.38112,18.89256 21.02172,18.54924 L18.30036,15.94932 C17.00148,14.7084 14.99652,14.58636 13.55664,15.66048 C13.1682,15.95028 12.62424,15.90276 12.29196,15.55008 L9.114948,12.17772 C7.735812,10.71372 5.433792,10.63692 3.96012,12.00564 L2.98752,12.909 C2.62332,13.24728 2.602296,13.81668 2.940564,14.18088 C3.278832,14.54508 3.848292,14.5662 4.212492,14.22792 L5.185104,13.32456 Z" id="Shape"></path>
                </g>
            </g>
        </g>
    </g>
</svg>