<?xml version="1.0" encoding="UTF-8"?>
<svg width="16px" height="16px" viewBox="0 0 16 16" version="1.1" xmlns="http://www.w3.org/2000/svg" xmlns:xlink="http://www.w3.org/1999/xlink">
    <title>gb@1x</title>
    <g id="1.-Design" stroke="none" stroke-width="1" fill="none" fill-rule="evenodd">
        <g id="HP-v.2.1-(schválená)" transform="translate(-1840, -24)" fill-rule="nonzero">
            <g id="gb" transform="translate(1840, 24)">
                <polygon id="Path" fill="#012169" points="0 0 16 0 16 16 0 16"></polygon>
                <polygon id="Path" fill="#FFFFFF" points="16 0 16 2 10.0625 8 16 13.84375 16 16 13.90625 16 7.9375 10.125 2.125 16 0 16 0 13.875 5.8125 8.03125 0 2.3125 0 0 1.9375 0 7.9375 5.875 13.75 0"></polygon>
                <path d="M5.75,10.125 L6.09375,11.1875 L1.3125,16 L0,16 L0,15.90625 L5.75,10.125 Z M9.625,9.75 L11.3125,10 L16,14.59375 L16,16 L9.625,9.75 Z M16,0 L10,6.125 L9.875,4.75 L14.5625,0 L16,0 Z M0,0.03125 L6.03125,5.9375 L4.1875,5.6875 L0,1.53125 L0,0.03125 Z" id="Shape" fill="#C8102E"></path>
                <path d="M5.5,0 L5.5,16 L10.5,16 L10.5,0 L5.5,0 Z M0,5.5 L0,10.5 L16,10.5 L16,5.5 L0,5.5 Z" id="Shape" fill="#FFFFFF"></path>
                <path d="M0,6.5 L0,9.5 L16,9.5 L16,6.5 L0,6.5 Z M6.5,0 L6.5,16 L9.5,16 L9.5,0 L6.5,0 Z" id="Shape" fill="#C8102E"></path>
            </g>
        </g>
    </g>
</svg>