<?xml version="1.0" encoding="UTF-8"?>
<svg xmlns="http://www.w3.org/2000/svg" viewBox="0 0 430.34 399.51">
  <defs>
    <style>
      .cls-1 {
        fill: #63a1ff;
      }

      .cls-1, .cls-2, .cls-3, .cls-4 {
        stroke-width: 0px;
      }

      .cls-2 {
        fill: #b9bbbe;
      }

      .cls-3 {
        fill: #020a0a;
      }

      .cls-4 {
        fill: #fff;
      }
    </style>
  </defs>
  <g id="gray">
    <rect class="cls-2" x="-414.17" y="-486.99" width="7637.72" height="5253.13"/>
  </g>
  <g id="WHite">
    <rect class="cls-4" x="-414.17" y="-486.99" width="7637.72" height="5253.13"/>
  </g>
  <g id="Grafika">
    <path class="cls-3" d="M215.21,92.09c-68,0-123.12,55.12-123.12,123.12s55.12,123.12,123.12,123.12,123.12-55.12,123.12-123.12-55.12-123.12-123.12-123.12ZM216.9,133.32h-3.39c1.79,61.91-33.73,124.01-96.94,139.73-9.98-16.97-15.7-36.73-15.7-57.84,0-63.15,51.19-114.34,114.34-114.34s114.34,51.19,114.34,114.34c0,21.1-5.73,40.89-15.71,57.85-63.22-15.72-98.54-77.83-96.94-139.74Z"/>
    <polygon class="cls-3" points="219.34 57.36 215.89 40.92 214.52 40.92 211.07 57.36 194.64 60.81 194.64 62.18 211.07 65.63 214.52 82.06 215.89 82.06 219.34 65.63 235.78 62.18 235.78 60.81 219.34 57.36"/>
    <path class="cls-1" d="M135.88,142.96v115.77c-5.1,2.42-10.41,4.45-15.9,6.09-7.96-15.24-12.14-32.28-12.14-49.61,0-27.81,10.63-53.17,28.04-72.25Z"/>
    <path class="cls-1" d="M194.58,109.88v84.89c0,.79-.16,1.58-.48,2.3-3.02,6.84-6.57,13.4-10.62,19.58-5.78,8.8-12.39,16.6-19.75,23.34v-118.94c9.51-5.22,19.88-9.03,30.85-11.17Z"/>
    <path class="cls-1" d="M266.38,120.94v118.84c-7.26-6.68-13.8-14.42-19.5-23.12-4.17-6.36-7.81-13.13-10.88-20.2-.31-.72-.47-1.49-.47-2.28v-84.33c10.96,2.11,21.34,5.9,30.85,11.09Z"/>
    <path class="cls-1" d="M322.46,215.21c0,17.33-4.19,34.38-12.15,49.62-5.49-1.64-10.79-3.67-15.89-6.08v-115.79c17.41,19.08,28.04,44.44,28.04,72.25Z"/>
  </g>
</svg>