<?xml version="1.0" encoding="UTF-8"?>
<svg width="12px" height="12px" viewBox="0 0 12 12" version="1.1" xmlns="http://www.w3.org/2000/svg" xmlns:xlink="http://www.w3.org/1999/xlink">
    <title>document-add-svgrepo-com-2</title>
    <g id="1.-Design" stroke="none" stroke-width="1" fill="none" fill-rule="evenodd">
        <g id="Článek-+-související-zápas" transform="translate(-1050, -1211)" fill="#FFFFFF">
            <g id="document-add-svgrepo-com-2" transform="translate(1050, 1211)">
                <path d="M8.11132986,8.70076912 C8.21632973,8.61886923 8.31154961,8.52364935 8.50204937,8.33314958 L10.8764864,5.95871255 C10.9338463,5.90135262 10.9075664,5.80247275 10.8308865,5.77583278 C10.5506268,5.6786329 10.1860073,5.49605313 9.84496769,5.15501356 C9.50392812,4.81397398 9.32134835,4.44936044 9.22414847,4.16908879 C9.1975085,4.09239088 9.09862863,4.06611692 9.0412687,4.12351885 L6.66683167,6.49793188 C6.4763319,6.68843164 6.38111202,6.78365152 6.29921213,6.88865139 C6.20261225,7.01255123 6.11975235,7.14653107 6.05219243,7.28837089 C5.99489251,7.40855074 5.95229256,7.53635058 5.86715267,7.79189026 L5.7570528,8.12206985 L5.58203302,8.64706919 L5.41793323,9.13936858 C5.37605328,9.26512842 5.40875324,9.40372825 5.50247312,9.49750813 C5.596253,9.59122801 5.73485283,9.62392797 5.86061267,9.58204802 L6.35291206,9.41794823 L6.8779114,9.24292845 L7.20809099,9.13282858 L7.20815099,9.13282858 C7.46363067,9.04768869 7.59143051,9.00508874 7.71161036,8.94778882 C7.85345018,8.8802289 7.98743002,8.797369 8.11132986,8.70076912 Z" id="Path" fill-rule="nonzero"></path>
                <path d="M11.6198855,5.21531348 C12.1267048,4.70851811 12.1267048,3.88686714 11.6198855,3.38008377 C11.1131261,2.87330041 10.2914871,2.87330041 9.78466777,3.38008377 L9.70834786,3.45642168 C9.63466796,3.53008359 9.601308,3.63297146 9.61972798,3.73551133 C9.63130796,3.80001125 9.65272793,3.89431313 9.69178789,4.00683699 C9.76984779,4.23187871 9.9172676,4.52728834 10.1950073,4.80497399 C10.4726869,5.08271365 10.7681265,5.23013346 10.9931263,5.30819336 C11.1056861,5.34725332 11.199946,5.36867329 11.2644459,5.38025327 C11.3669858,5.39867325 11.4698857,5.36531329 11.5435656,5.29163339 L11.6198855,5.21531348 Z" id="Path" fill-rule="nonzero"></path>
                <path d="M0.702941121,0.702941121 C0,1.40588824 0,2.53725283 0,4.799994 L0,7.199991 C0,9.46270817 0,10.5941268 0.702941121,11.2970259 C1.40588824,11.999985 2.53725283,11.999985 4.799994,11.999985 L6,11.999985 C8.26270967,11.999985 9.39412826,11.999985 10.0970274,11.2970259 C10.7887065,10.6053467 10.7998065,9.49894813 10.7999865,7.30805086 L9.10900861,8.99902875 C8.94712882,9.16096855 8.81458898,9.29362838 8.66488917,9.41044824 C8.48944939,9.54724807 8.29966963,9.66454792 8.09884988,9.7602478 C7.92743009,9.8419077 7.74953031,9.90118762 7.53227058,9.97348753 L6.14525232,10.435847 C5.69609288,10.5855468 5.2009135,10.4686669 4.86611392,10.1338673 C4.53137434,9.79906775 4.41443448,9.30388837 4.56419429,8.85472893 L4.72829409,8.36248955 L5.01335373,7.50725062 L5.02649372,7.46777067 C5.09885363,7.25051094 5.15807355,7.07255116 5.23973345,6.90113137 C5.33543333,6.70031162 5.45273318,6.51053186 5.58959301,6.33515208 C5.70635287,6.18539227 5.8390127,6.05285243 6.0010125,5.89097264 L8.40484949,3.48712364 L9.07198866,2.82002047 L9.14830856,2.74368857 C9.57754803,2.31444311 10.1401673,2.09988338 10.7027866,2.09999738 C10.6120067,1.48166815 10.436447,1.0423607 10.0970274,0.702941121 C9.39412826,0 8.26270967,0 6,0 L4.799994,0 C2.53725283,0 1.40588824,0 0.702941121,0.702941121 Z M2.54999681,4.19999475 C2.54999681,3.95146906 2.75147056,3.74999531 2.99999625,3.74999531 L6.89999138,3.74999531 C7.14851106,3.74999531 7.34999081,3.95146906 7.34999081,4.19999475 C7.34999081,4.44852044 7.14851106,4.64999419 6.89999138,4.64999419 L2.99999625,4.64999419 C2.75147056,4.64999419 2.54999681,4.44852044 2.54999681,4.19999475 Z M2.54999681,6.59999175 C2.54999681,6.35147206 2.75147056,6.14999231 2.99999625,6.14999231 L4.49999438,6.14999231 C4.74851406,6.14999231 4.94999381,6.35147206 4.94999381,6.59999175 C4.94999381,6.84851144 4.74851406,7.04999119 4.49999438,7.04999119 L2.99999625,7.04999119 C2.75147056,7.04999119 2.54999681,6.84851144 2.54999681,6.59999175 Z M2.54999681,8.99998875 C2.54999681,8.75146906 2.75147056,8.54998931 2.99999625,8.54998931 L3.89999513,8.54998931 C4.14852081,8.54998931 4.34999456,8.75146906 4.34999456,8.99998875 C4.34999456,9.24850844 4.14852081,9.44998819 3.89999513,9.44998819 L2.99999625,9.44998819 C2.75147056,9.44998819 2.54999681,9.24850844 2.54999681,8.99998875 Z" id="Shape"></path>
            </g>
        </g>
    </g>
</svg>