<?xml version="1.0" encoding="UTF-8"?>
<svg width="10px" height="10px" viewBox="0 0 10 10" version="1.1" xmlns="http://www.w3.org/2000/svg" xmlns:xlink="http://www.w3.org/1999/xlink">
    <title>search@1x</title>
    <g id="1.-Design" stroke="none" stroke-width="1" fill="none" fill-rule="evenodd">
        <g id="HP-v.2.1-(schválená)" transform="translate(-1807, -27)" fill="#fff" fill-rule="nonzero">
            <g id="search" transform="translate(1800, 20)">
                <g transform="translate(7, 7)" id="Shape">
                    <path d="M4.09556314,8.19770946 C4.93876732,8.19770946 5.71772736,7.94052642 6.36819916,7.50653004 L8.72114033,9.86136227 C8.90592251,10.0462126 9.21108211,10.0462126 9.40373419,9.86136227 L9.8614736,9.40325497 C10.0461755,9.21840466 10.0461755,8.9129998 9.8614736,8.72011252 L7.50050191,6.37331726 C7.93406946,5.72232268 8.19112628,4.94273659 8.19112628,4.09885473 C8.19112628,1.84046614 6.35213812,0 4.09556314,0 C1.83898815,0 0,1.84046614 0,4.09885473 C0,6.35716295 1.83095764,8.19770946 4.09556314,8.19770946 Z M4.09556314,1.60739401 C5.46878137,1.60739401 6.58502309,2.72453285 6.58502309,4.09885473 C6.58502309,5.47317661 5.46878137,6.59031545 4.09556314,6.59031545 C2.72234491,6.59031545 1.60610319,5.47317661 1.60610319,4.09885473 C1.60610319,2.72453285 2.72234491,1.60739401 4.09556314,1.60739401 Z"></path>
                </g>
            </g>
        </g>
    </g>
</svg>