<?xml version="1.0" encoding="UTF-8" standalone="no"?>
<!-- Generator: Adobe Illustrator 27.5.0, SVG Export Plug-In . SVG Version: 6.00 Build 0)  -->

<svg
   version="1.1"
   id="svg5"
   x="0px"
   y="0px"
   viewBox="0 0 31.999997 31.997397"
   xml:space="preserve"
   sodipodi:docname="twitter-white.svg"
   inkscape:export-filename="..\HC_Motor_CB\X_col.svg"
   inkscape:export-xdpi="96"
   inkscape:export-ydpi="96"
   inkscape:version="1.3 (0e150ed6c4, 2023-07-21)"
   width="8.4666662mm"
   height="8.4659777mm"
   xmlns:inkscape="http://www.inkscape.org/namespaces/inkscape"
   xmlns:sodipodi="http://sodipodi.sourceforge.net/DTD/sodipodi-0.dtd"
   xmlns="http://www.w3.org/2000/svg"
   xmlns:svg="http://www.w3.org/2000/svg"><defs
   id="defs1" /><sodipodi:namedview
   id="namedview1"
   pagecolor="#ffffff"
   bordercolor="#000000"
   borderopacity="0.25"
   inkscape:showpageshadow="2"
   inkscape:pageopacity="0.0"
   inkscape:pagecheckerboard="0"
   inkscape:deskcolor="#d1d1d1"
   inkscape:zoom="21.096034"
   inkscape:cx="13.794062"
   inkscape:cy="16.282681"
   inkscape:window-width="1920"
   inkscape:window-height="991"
   inkscape:window-x="-9"
   inkscape:window-y="-9"
   inkscape:window-maximized="1"
   inkscape:current-layer="g2"
   inkscape:export-bgcolor="#01aee2"
   inkscape:document-units="mm" />&#10;<style
   type="text/css"
   id="style1">&#10;	.st0{stroke:#FFFFFF;stroke-miterlimit:10;}&#10;	.st1{fill:#FFFFFF;}&#10;</style>&#10;<g
   id="g1"
   transform="matrix(0.02490505,0,0,0.02490505,-25.042918,-6.9205687)"
   inkscape:export-filename="..\HC_Motor_CB\X_col.svg"
   inkscape:export-xdpi="96"
   inkscape:export-ydpi="96">&#10;	&#10;	<g
   id="g2"
   style="stroke:#ffffff;stroke-opacity:1"><g
     id="g3"
     style="fill:#01aee2;fill-opacity:1;stroke:#01aee2;stroke-width:1.00381;stroke-dasharray:none;stroke-opacity:1"
     transform="matrix(1.3332465,0,0,1.3332465,214.36289,191.19287)"
     inkscape:export-filename="twitter-white.svg"
     inkscape:export-xdpi="96"
     inkscape:export-ydpi="96"><path
       id="circle1"
       style="fill:#01aee2;fill-opacity:1;stroke:#01aee2;stroke-opacity:1"
       class="st0"
       d="M 1075.2797,65.520081 A 481.32999,481.32999 0 0 0 593.9202,546.80111 481.32999,481.32999 0 0 0 1075.2797,1028.1606 481.32999,481.32999 0 0 0 1556.6391,546.80111 481.32999,481.32999 0 0 0 1075.2797,65.520081 Z M 778.76286,267.92946 H 956.0769 l 150.8856,201.70357 186.6464,-201.70357 h 52.0727 l -215.4275,232.83744 242.954,324.90588 H 1195.894 L 1032.1471,606.71617 829.42402,825.67278 H 777.35125 L 1008.8555,575.5823 Z m 76.61914,38.4272 359.7256,480.96732 h 81.4813 L 936.8633,306.35666 Z" /></g></g>&#10;</g>&#10;</svg>
