<svg width="32" height="29" viewBox="0 0 32 29" xmlns="http://www.w3.org/2000/svg"><g fill="#0B2A84" fill-rule="nonzero"><path d="M31.454 18.062a1.232 1.232 0 00.338-1.707l-4.301-6.442c-.57-.852-1.44-1.297-2.355-1.297h-1.844c-1.06 0-1.906.643-2.445 1.477-.054.083.268-.408-4.203 6.26a1.232 1.232 0 00.335 1.707 1.228 1.228 0 001.706-.335l1.843-2.749.003 12.486a1.537 1.537 0 103.072 0v-6.923h1.23v6.923a1.537 1.537 0 103.071 0c0-13.27-.003-12.408-.003-12.508l1.849 2.769a1.227 1.227 0 001.704.339zM24.218 7.424a2.947 2.947 0 002.945-2.95 2.948 2.948 0 00-1.404-2.512c.174-.123.377-.237.616-.334a.278.278 0 00.024-.505C25.933.88 25.366.875 24.83.978c.091-.17.206-.344.352-.52A.279.279 0 0024.966 0c-1.077.012-2.064 1.105-2.457 1.759a1.85 1.85 0 00-.203.474 2.947 2.947 0 001.912 5.19zM11.107 10.023c-.53-.806-1.374-1.407-2.407-1.407H6.857c-1.05 0-1.964.586-2.432 1.45-.057.082-4.16 6.204-4.216 6.287a1.232 1.232 0 00.335 1.708 1.228 1.228 0 001.705-.336l1.843-2.749v.034l-1.673 6.831a1.069 1.069 0 001.036 1.323h.64v4.298a1.537 1.537 0 103.073 0v-4.298h1.229v4.298a1.537 1.537 0 103.072 0v-4.298h.633a1.066 1.066 0 001.036-1.323l-1.673-6.831v-.045l1.85 2.76a1.228 1.228 0 001.706.336 1.232 1.232 0 00.335-1.708c-4.54-6.77-4.196-6.25-4.249-6.33zM1.907 8.326a.278.278 0 00.265-.14c.809-1.43 2.078-1.309 2.362-1.837.04-.073.07-.148.093-.224a.46.46 0 00.49.122.457.457 0 00.207-.15 2.94 2.94 0 004.917 0 .457.457 0 00.697.028c.023.076.054.151.093.224.284.528 1.553.407 2.362 1.837a.278.278 0 00.503-.042c.369-1.013-.303-2.324-.775-2.923-.406-.516-1.031-.794-1.608-.482-.02.01-.04.023-.06.035l.005-.013a.462.462 0 00-.282-.589.458.458 0 00-.457.092 2.947 2.947 0 00-2.936-2.738 2.947 2.947 0 00-2.937 2.738.458.458 0 00-.74.497l.005.013c-.02-.012-.038-.025-.059-.035-.577-.312-1.202-.034-1.608.482-.471.6-1.144 1.91-.775 2.923.037.102.13.173.238.182z"/></g></svg>