<svg width="12" height="12" viewBox="0 0 12 12" xmlns="http://www.w3.org/2000/svg"><path d="M.879.879C0 1.757 0 3.172 0 6c0 2.828 0 4.243.879 5.121C1.757 12 3.172 12 6 12c2.828 0 4.243 0 5.121-.879C12 10.243 12 8.828 12 6c0-2.828 0-4.243-.879-5.121C10.243 0 8.828 0 6 0 3.172 0 1.757 0 .879.879zM8.4 4.8a1.2 1.2 0 100-2.4 1.2 1.2 0 000 2.4zM2.593 6.662a.93.93 0 011.31.044L5.49 8.392c.48.51 1.265.578 1.825.16a.94.94 0 011.212.073l1.361 1.3a.45.45 0 00.622-.65l-1.36-1.3a1.84 1.84 0 00-2.373-.145.477.477 0 01-.632-.055L4.557 6.089a1.83 1.83 0 00-2.577-.086l-.486.452a.45.45 0 10.612.659l.487-.452z" fill="#FFF" fill-rule="evenodd"/></svg>