<svg width="24" height="24" viewBox="0 0 24 24" xmlns="http://www.w3.org/2000/svg"><path d="M1.757 1.757C0 3.515 0 6.343 0 12s0 8.485 1.757 10.243C3.515 24 6.343 24 12 24s8.485 0 10.243-1.757C24 20.485 24 17.657 24 12s0-8.485-1.757-10.243C20.485 0 17.657 0 12 0S3.515 0 1.757 1.757zM16.8 9.6a2.4 2.4 0 100-4.8 2.4 2.4 0 000 4.8zM5.185 13.325a1.86 1.86 0 012.62.087l3.177 3.372a2.754 2.754 0 003.65.32 1.88 1.88 0 012.425.147l2.721 2.6a.9.9 0 001.244-1.302l-2.722-2.6a3.681 3.681 0 00-4.743-.289.954.954 0 01-1.265-.11l-3.177-3.372a3.66 3.66 0 00-5.155-.172l-.972.903a.9.9 0 101.224 1.319l.973-.903z" fill="#01AEE2" fill-rule="evenodd"/></svg>