<svg width="16" height="16" viewBox="0 0 16 16" xmlns="http://www.w3.org/2000/svg"><g fill-rule="nonzero" fill="none"><path fill="#012169" d="M0 0h16v16H0z"/><path fill="#FFF" d="M16 0v2l-5.938 6L16 13.844V16h-2.094l-5.969-5.875L2.125 16H0v-2.125l5.813-5.844L0 2.312V0h1.938l6 5.875L13.75 0z"/><path d="M5.75 10.125l.344 1.063L1.312 16H0v-.094l5.75-5.781zm3.875-.375l1.688.25L16 14.594V16L9.625 9.75zM16 0l-6 6.125-.125-1.375L14.563 0H16zM0 .031l6.031 5.907-1.843-.25L0 1.53v-1.5z" fill="#C8102E"/><path d="M5.5 0v16h5V0h-5zM0 5.5v5h16v-5H0z" fill="#FFF"/><path d="M0 6.5v3h16v-3H0zM6.5 0v16h3V0h-3z" fill="#C8102E"/></g></svg>