<svg xmlns="http://www.w3.org/2000/svg" viewBox="0 0 430.34 399.51"><defs><style>.cls-1,.cls-3{fill:#63a1ff;stroke-width:0}.cls-3{fill:#020a0a}</style></defs><path fill="#b9bbbe" stroke-width="0" d="M-414.17-486.99h7637.72v5253.13H-414.17z" id="gray"/><path fill="#fff" stroke-width="0" d="M-414.17-486.99h7637.72v5253.13H-414.17z" id="WHite"/><g id="Grafika"><path class="cls-3" d="M215.21 92.09c-68 0-123.12 55.12-123.12 123.12s55.12 123.12 123.12 123.12 123.12-55.12 123.12-123.12S283.21 92.09 215.21 92.09zm1.69 41.23h-3.39c1.79 61.91-33.73 124.01-96.94 139.73-9.98-16.97-15.7-36.73-15.7-57.84 0-63.15 51.19-114.34 114.34-114.34s114.34 51.19 114.34 114.34c0 21.1-5.73 40.89-15.71 57.85-63.22-15.72-98.54-77.83-96.94-139.74zM219.34 57.36l-3.45-16.44h-1.37l-3.45 16.44-16.43 3.45v1.37l16.43 3.45 3.45 16.43h1.37l3.45-16.43 16.44-3.45v-1.37l-16.44-3.45z"/><path class="cls-1" d="M135.88 142.96v115.77c-5.1 2.42-10.41 4.45-15.9 6.09-7.96-15.24-12.14-32.28-12.14-49.61 0-27.81 10.63-53.17 28.04-72.25zM194.58 109.88v84.89c0 .79-.16 1.58-.48 2.3-3.02 6.84-6.57 13.4-10.62 19.58-5.78 8.8-12.39 16.6-19.75 23.34V121.05c9.51-5.22 19.88-9.03 30.85-11.17zM266.38 120.94v118.84c-7.26-6.68-13.8-14.42-19.5-23.12a134.69 134.69 0 01-10.88-20.2c-.31-.72-.47-1.49-.47-2.28v-84.33c10.96 2.11 21.34 5.9 30.85 11.09zM322.46 215.21c0 17.33-4.19 34.38-12.15 49.62-5.49-1.64-10.79-3.67-15.89-6.08V142.96c17.41 19.08 28.04 44.44 28.04 72.25z"/></g></svg>