<svg width="80" height="80" viewBox="0 0 80 80" xmlns="http://www.w3.org/2000/svg" xmlns:xlink="http://www.w3.org/1999/xlink"><defs><path id="a" d="M0 0h80v80H0z"/></defs><g fill="none" fill-rule="evenodd"><g><mask id="b" fill="#fff"><use xlink:href="#a"/></mask><path d="M40 80.015c-22.056 0-40-17.948-40-40.008C0 17.947 17.944 0 40 0s40 17.947 40 40.007-17.944 40.008-40 40.008" fill="#FFFFFE" mask="url(#b)"/></g><path d="M40 78.986c21.46 0 38.972-17.514 38.972-38.979C78.972 18.543 61.46 1.03 40 1.03S1.028 18.543 1.028 40.007C1.028 61.472 18.54 78.986 40 78.986" fill="#000"/><path d="M40 15.504c13.155 0 23.945 10.474 24.48 23.513-1.614-.247-3.07-.494-4.098-.772-2.841-.762-5.603-1.752-8.365-2.198-.703-.109-1.277-.119-1.653.01-.594-.753-1.534-1.416-2.425-1.742-.565-.209-1.287-.694-1.92-.98-.704-.328-1.366-.703-2.337-.516-.564-.822-1.178-1.168-1.593-1.415a3.76 3.76 0 001.119-.902c-2.149-1.445-2.753-5.158-3.208-7.999-.455 2.841-1.059 6.554-3.208 8 .298.366.634.673 1.03.841-2.494.386-3.405 1.842-5.038 2.901-.9.584-1.98 1.03-3.059 1.495-3.05 1.307-6.177 1.99-9.334 2.862-.426.118-2.514.365-4.87.603C15.945 26.077 26.774 15.504 40 15.504" fill="#1F89BE"/><path d="M76.724 41.314C76.022 60.957 59.798 76.768 40 76.768S3.978 60.957 3.275 41.314h10.949C14.916 54.927 26.23 65.818 40 65.818s25.083-10.89 25.777-24.504h10.947M40 3.246c20.243 0 36.754 16.514 36.754 36.761 0 .346-.01.704-.02 1.06-2.187-.208-4.236-.882-6.384-1.199-1.445-.217-3.03-.435-4.553-.653C65.37 25.355 53.947 14.197 40 14.197c-13.987 0-25.44 11.227-25.796 25.147-2.317.228-4.633.435-5.682.505-.535.04-.594.089-1.04.307-.306.168-.643.248-1.534.386-.653.1-.673.109-2.158.317-.079.05-.316.148-.524.247-.01-.366-.02-.732-.02-1.099 0-20.247 16.51-36.76 36.754-36.76" fill="#FFFFFE"/><path fill="#000" d="M14.699 29.919l.673-1.267-3.217-1.703 1.742-3.288-1.04-.545-1.742 3.278-1.9-1.01 1.99-3.732-1.1-.585-2.662 5L14.7 29.92M19.005 14.721c-1.396-1.109-3.148-.772-4.435.555-1.712 1.772-1.326 4.187.356 5.811 1.683 1.634 4.118 1.93 5.82.169 1.386-1.436 1.377-3.376.04-4.832l-.97 1.01c.782.92.98 2.08.09 3-1.218 1.267-2.852.723-3.98-.376-1.138-1.09-1.742-2.703-.515-3.97.832-.862 1.743-.812 2.594-.337l1-1.03M25.983 13.404c.762 1.891 2.495 2.178 4.247 1.515 1.525-.594 2.781-1.86 2.118-3.584-.297-.792-1.108-1.465-2.237-1.376-.445.03-2.306.248-2.435.257-.604.06-1.089-.098-1.297-.633-.297-.772.406-1.307 1.03-1.545.92-.356 1.722-.238 2.167.723l1.347-.515c-.614-1.604-2.287-1.93-3.88-1.316-1.386.524-2.525 1.791-1.94 3.326.306.792.999 1.435 2.444 1.287 1.159-.11 1.91-.238 2.524-.238.357 0 .773.11 1 .704.218.574 0 1.326-1.178 1.771-1.069.417-2.118.288-2.573-.89l-1.337.514M34.853 13.157l5.583-.386-.09-1.237-4.147.287-.485-6.95-1.435.098.574 8.188M46.503 6.286c1.732.297 2.188 1.96 1.921 3.504-.278 1.555-1.268 2.96-3 2.654-1.732-.307-2.186-1.96-1.92-3.515.277-1.554 1.267-2.95 3-2.643zm.208-1.159c-2.425-.425-4.207 1.238-4.622 3.555-.406 2.306.703 4.485 3.127 4.92 2.426.427 4.208-1.247 4.623-3.554.407-2.316-.702-4.494-3.128-4.92zM52.225 15.82l1.426.723 6.226-6.04-1.307-.663-4.82 4.832-.02-.01 1.118-6.723-1.336-.682-1.287 8.563M55.868 17.76l1.079 1.01 2.05-1.059 2.394 2.238-.92 2.109 1.128 1.049 3.286-8.158-1.118-1.04-7.899 3.852zm7.474-2.316l.019.02-1.505 3.425-1.83-1.713 3.316-1.732zM62.085 24.156l.683 1.188 5.226-3.02.02.03-3.356 6.258.752 1.316 7.107-4.108-.682-1.189-5.237 3.03-.01-.02 3.366-6.276-.763-1.307-7.106 4.098M10.294 59.58l3.455 4.417.97-.762-2.564-3.287 5.484-4.298-.881-1.129-6.464 5.06M17.41 67.254l1.12.901 5.167-6.376-1.119-.901-5.167 6.376M30.2 67.966c-.317.664-.95.812-1.574.525l-2.128-1 .95-2.049 2.128.99c.713.337.97.782.624 1.534zm-1.118 3.268c-.357.752-1.01.97-1.802.593l-2.306-1.069 1.089-2.326 2.296 1.08c.792.365 1.059.999.723 1.722zm1.177-5.772l-3.612-1.693-3.465 7.445 3.415 1.594c1.92.9 3.158.366 3.702-.802.476-1.01.317-1.94-.504-2.564l.01-.02c.82.02 1.454-.337 1.801-1.09.584-1.237-.01-2.247-1.347-2.87zM34.378 75.056l5.958.524.11-1.238-4.524-.395.207-2.396 4.109.366.098-1.168-4.107-.367.188-2.138 4.444.386.11-1.238-5.881-.515-.712 8.179M45.425 75.115l1.385-.347-.812-3.277 2.05-.515c1.286-.316 1.742.248 2.108 1.713.1.386.208.822.505 1.12l1.495-.378c-.377-.247-.723-1.058-.96-1.98-.308-1.267-1.1-1.445-1.605-1.395v-.02c.238-.159 1.2-.812.813-2.336-.337-1.347-1.425-1.932-3.168-1.496l-3.801.95 1.99 7.961zm-.317-7.178l2.266-.564c.724-.179 1.436-.14 1.693.87.208.842-.168 1.397-1.049 1.615l-2.287.574-.623-2.495zM56.768 71.402l5.029-3.267-.683-1.04-3.811 2.486-1.307-2.02 3.465-2.248-.634-.99-3.474 2.257-1.168-1.802 3.752-2.435-.683-1.04-4.95 3.218 4.464 6.881M65.47 55.809c-1.505-.96-3.207-.436-4.356 1.02-1.514 1.93-.881 4.296.97 5.741 1.84 1.446 4.286 1.486 5.8-.455 1.228-1.564 1.02-3.495-.464-4.791l-.862 1.099c.872.831 1.189 1.97.406 2.97-1.079 1.386-2.762 1.01-3.999.04-1.237-.961-2.01-2.506-.93-3.892.742-.94 1.653-.99 2.543-.604l.891-1.128"/><path d="M29.18 61.977a24.45 24.45 0 01-7.216-5.426V41.314h7.217v20.663M43.603 64.244a24.177 24.177 0 01-3.603.267c-1.217 0-2.425-.09-3.603-.267v-22.93h7.206v22.93M58.035 56.551a24.453 24.453 0 01-7.216 5.426V41.314h7.216v15.237" fill="#FFFFFE"/><path d="M21.964 56.551c-3.731-4.06-6.117-9.376-6.424-15.237h6.424v15.237M36.397 64.244a24.186 24.186 0 01-7.216-2.267V41.314h7.216v22.93M50.82 61.977a24.187 24.187 0 01-7.217 2.267v-22.93h7.216v20.663M64.46 41.314c-.307 5.861-2.693 11.178-6.425 15.237V41.314h6.425" fill="#1F89BE"/></g></svg>