<svg width="12" height="12" viewBox="0 0 12 12" xmlns="http://www.w3.org/2000/svg"><g fill="#FFF" fill-rule="evenodd"><path d="M8.111 8.7c.105-.081.2-.176.391-.367l2.374-2.374c.058-.058.032-.157-.045-.183a2.6 2.6 0 01-.986-.621 2.6 2.6 0 01-.62-.986c-.027-.077-.126-.103-.184-.045L6.667 6.498c-.19.19-.286.286-.368.39-.096.125-.18.259-.247.4a4.5 4.5 0 00-.185.504l-.11.33-.175.525-.164.492a.35.35 0 00.443.443l.492-.164.525-.175.33-.11c.256-.085.383-.128.504-.185.141-.068.275-.15.4-.247zM11.62 5.215A1.298 1.298 0 109.785 3.38l-.077.076a.314.314 0 00-.088.28c.011.064.033.158.072.27.078.226.225.521.503.799s.573.425.798.503c.113.04.207.06.271.072a.314.314 0 00.28-.088l.076-.077z" fill-rule="nonzero"/><path d="M.703.703C0 1.406 0 2.537 0 4.8v2.4c0 2.263 0 3.394.703 4.097C1.406 12 2.537 12 4.8 12H6c2.263 0 3.394 0 4.097-.703.692-.692.703-1.798.703-3.989L9.109 9c-.162.162-.294.295-.444.411a3.064 3.064 0 01-.566.35c-.172.082-.35.141-.567.213l-1.387.463a1.25 1.25 0 01-1.58-1.581l.163-.493.285-.855.013-.04c.073-.216.132-.394.214-.566.095-.2.213-.39.35-.566.116-.15.249-.282.411-.444l2.404-2.404.667-.667.076-.076a2.19 2.19 0 011.555-.644c-.091-.618-.267-1.058-.606-1.397C9.394 0 8.263 0 6 0H4.8C2.537 0 1.406 0 .703.703zM2.55 4.2A.45.45 0 013 3.75h3.9a.45.45 0 010 .9H3a.45.45 0 01-.45-.45zm0 2.4A.45.45 0 013 6.15h1.5a.45.45 0 010 .9H3a.45.45 0 01-.45-.45zm0 2.4A.45.45 0 013 8.55h.9a.45.45 0 010 .9H3A.45.45 0 012.55 9z"/></g></svg>