<svg width="32" height="30" viewBox="0 0 32 30" xmlns="http://www.w3.org/2000/svg"><g fill="#0B2A84" fill-rule="nonzero"><path d="M16 4.286c2.205 0 4.047-1.727 4.267-3.884.02-.201-.2-.402-.4-.402a.863.863 0 00-.316.06c-.014.006-1.407.543-3.551.543S12.46.067 12.45.06a1.076 1.076 0 00-.354-.06h-.004a.379.379 0 00-.359.402C11.957 2.555 13.8 4.286 16 4.286z"/><path d="M31.286 3.877l-8.62-3.03a.266.266 0 00-.35.211c-.516 3.1-3.185 5.37-6.313 5.37-3.128 0-5.798-2.27-6.313-5.37a.268.268 0 00-.357-.212L.714 3.877C.216 4.053-.08 4.568.02 5.09l1.109 5.893c.087.461.463.811.928.864l3.258.37c.276.03.482.27.474.548l-.49 16.132c-.012.425.226.817.608 1 .155.07.324.106.494.104h19.2c.17.002.34-.033.494-.104.382-.183.62-.575.607-1l-.489-16.132a.535.535 0 01.474-.548l3.258-.37c.465-.053.84-.403.928-.864l1.109-5.893a1.072 1.072 0 00-.695-1.212z"/></g></svg>