<svg version="1.1" id="Vrstva_1" xmlns="http://www.w3.org/2000/svg" x="0" y="0" viewBox="0 0 1080 1080" xml:space="preserve"><style>.st0{fill:#fff}</style><path class="st0" d="M916.5 848.7c79-88.8 127-205.6 127-333.6 0-277.7-225.4-502.8-503.5-502.8S36.5 237.3 36.5 515c0 128 48 244.8 127 333.6l-24.9 24.9-10.3 10.3c3 3.3 6 6.7 9.1 10 7.9 8.2 15.9 16.3 24.2 24.2 60.8 56.9 134.3 100.3 215.9 125.4 11.4 3.5 22.9 6.7 34.7 9.5 41 9.6 83.9 14.9 127.8 14.9s86.9-5.1 127.8-14.9c11.7-2.8 23.3-6 34.7-9.5 81.6-25 155.3-68.5 215.9-125.4 8.2-7.7 16.3-15.8 24.2-24.2 3.2-3.3 6.1-6.5 9.1-10l-10.3-10.3-24.9-24.8z"/><path fill="#C81919" d="M872.9 872.5L848 847.6 829.3 829c-46.2 42.6-102.1 75.1-163.7 94l7.7 25.2 10.3 33.6 4.2 14c73.7-22.6 140.3-61.6 195.3-113l-10.2-10.3z"/><path d="M648.8 991l-10.3-33.6-7.5-25.2c-29.2 6.3-59.7 9.6-91.1 9.6-31.2 0-61.6-3.3-91.1-9.6l-7.7 25.2-10.4 33.6-4.4 14c36.4 8.4 74.4 12.8 113.3 12.8s76.9-4.4 113.3-12.8l-4.1-14z" fill="#faa019"/><path d="M250.3 829l-18.7 18.6-24.9 24.9-10.3 10.3c55 51.3 121.5 90.4 195.3 113l4.2-14 10.3-33.6 7.7-25.2c-61.6-18.8-117.3-51.4-163.6-94" fill="#235aaa"/><path d="M687.8 995.8l-4.2-14-10.3-33.6-7.7-25.2c61.6-18.9 117.5-51.5 163.7-94l18.7 18.6 24.9 24.9 10.3 10.3c-54.9 51.1-121.5 90.4-195.4 113m-148-907.5c-236.1 0-427.5 191.1-427.5 426.8 0 107 39.4 204.9 104.7 279.8l8.9 10-18.6 18.6c-3-3.3-6.1-6.7-9.1-10C128.3 733.8 85.9 629.2 85.9 515 85.9 264.8 289 62 539.6 62s453.7 202.8 453.7 453c0 114.4-42.4 218.7-112.4 298.4-3 3.3-6 6.7-9.1 10l-18.6-18.6c3-3.3 6.1-6.7 8.9-10 65.1-75 104.7-172.8 104.7-279.8.3-235.7-190.9-426.7-427-426.7m0 929.5c-38.9 0-76.9-4.4-113.3-12.8l4.2-14 10.3-33.6 7.7-25.2c29.2 6.3 59.7 9.6 91.1 9.6 31.2 0 61.6-3.3 91.1-9.6l7.7 25.2 10.3 33.6 4.4 14c-36.6 8.4-74.6 12.8-113.5 12.8m-133.4-69.7L396 981.7l-4.2 14c-73.7-22.6-140.3-61.6-195.3-113l10.3-10.3 24.9-24.9 18.7-18.6c46.2 42.6 102.1 75.1 163.7 94l-7.7 25.2zm490.7-99.8c3.2-3.3 6.1-6.7 9.1-10 76.4-86.2 122.6-199.3 122.6-323.3 0-269.5-218.9-488-489-488S50.9 245.5 50.9 515c0 124 46.2 237.3 122.6 323.3 3 3.3 6 6.7 9.1 10l-10.3 10.3-24.9 24.9c7.9 8.2 15.9 16.3 24.2 24.2 59 55.3 130.6 97.4 210 121.7 11.4 3.5 22.9 6.7 34.7 9.5 39.8 9.3 81.1 14.2 123.6 14.2 42.6 0 83.9-4.9 123.6-14.2 11.7-2.8 23.3-6 34.7-9.5 79.3-24.3 150.8-66.4 210-121.7 8.2-7.7 16.3-15.8 24.2-24.2l-24.9-24.9-10.4-10.3z" fill="#1d1d1b"/><path class="st0" d="M642.3 412.1l105.4 28.2v-65.7c0-70.7-58-128.5-128.7-128.5H460.8c-70.9 0-128.7 57.8-128.7 128.5v38c0 55.2 31.2 109.1 102.4 128l183.7 48.7c14.7 3.9 24 13.7 24 29.6v48c0 12.6-10.7 23.5-23.5 23.5h-158c-13 0-23.5-10.3-23.5-23.5v-48L331.8 591v64.3c0 70.7 58 128.5 128.7 128.5h158.1c70.9 0 128.7-57.8 128.7-128.5v-37.7c0-55.2-31.2-109.1-102.4-128L461.2 441c-14.7-3.9-24-13.7-24-29.6V363c0-14 9.5-23.5 23.5-23.5h158.1c13 0 23.5 10.3 23.5 23.5v49.1z"/><path class="st0" d="M539.8 62C289.2 62 86.1 264.8 86.1 515c0 114.4 42.4 218.7 112.4 298.4 3 3.3 6 6.7 9.1 10l18.6-18.6c-3-3.3-6.1-6.7-8.9-10C152.1 719.9 112.5 622 112.5 515c0-235.7 191.4-426.8 427.5-426.8S967.5 279.3 967.5 515c0 107-39.4 204.9-104.7 279.8-3 3.3-6 6.7-8.9 10l18.6 18.6c3-3.3 6.1-6.7 9.1-10C951.6 733.7 994 629.2 994 515c-.4-250.2-203.6-453-454.2-453"/></svg>