<svg width="32" height="25" viewBox="0 0 32 25" xmlns="http://www.w3.org/2000/svg"><path d="M30.4 9.375c.884 0 1.6-.7 1.6-1.563V3.125C32 1.399 30.567 0 28.8 0H14.4v4.688c0 .862-.716 1.562-1.6 1.562-.884 0-1.6-.7-1.6-1.563V0h-8C1.433 0 0 1.4 0 3.125v4.688c0 .862.716 1.562 1.6 1.562 1.767 0 3.2 1.4 3.2 3.125 0 1.726-1.433 3.125-3.2 3.125-.884 0-1.6.7-1.6 1.563v4.687C0 23.601 1.433 25 3.2 25h8v-4.688c0-.862.716-1.562 1.6-1.562.884 0 1.6.7 1.6 1.563V25h14.4c1.767 0 3.2-1.4 3.2-3.125v-4.688c0-.862-.716-1.562-1.6-1.562-1.767 0-3.2-1.4-3.2-3.125 0-1.726 1.433-3.125 3.2-3.125zm-16 4.688c0 .862-.716 1.562-1.6 1.562-.884 0-1.6-.7-1.6-1.563v-3.124c0-.863.716-1.563 1.6-1.563.884 0 1.6.7 1.6 1.563v3.124z" fill="#0B2A84" fill-rule="nonzero"/></svg>