<svg version="1.1" id="svg5" x="0" y="0" viewBox="0 0 32 32" xml:space="preserve" width="32" height="32" xmlns="http://www.w3.org/2000/svg"><style type="text/css" id="style1"></style><g id="g1" transform="matrix(.0249 0 0 .0249 -25.043 -6.92)"><g id="g2" stroke="#fff" stroke-opacity="1"><g id="g3" transform="matrix(1.33325 0 0 1.33325 214.363 191.193)" fill="#63a1ff" fill-opacity="1" stroke="#01aee2" stroke-width="1" stroke-dasharray="none" stroke-opacity="1"><path id="circle1" d="M1075.28 65.52a481.33 481.33 0 00-481.36 481.281 481.33 481.33 0 00481.36 481.36 481.33 481.33 0 00481.36-481.36 481.33 481.33 0 00-481.36-481.28zM778.763 267.93h177.314l150.886 201.703 186.646-201.704h52.073l-215.428 232.838 242.954 324.906h-177.314l-163.747-218.957-202.723 218.957h-52.073l231.505-250.09zm76.619 38.427l359.726 480.967h81.48L936.864 306.357z" fill="#63a1ff" fill-opacity="1" stroke="#01aee2" stroke-opacity="1" stroke-miterlimit="10"/></g></g></g></svg>