<svg width="23" height="29" viewBox="0 0 23 29" xmlns="http://www.w3.org/2000/svg"><g fill="#0B2A84" fill-rule="nonzero"><path d="M22.798 24.343a4.595 4.595 0 00-.478-1.147 4.674 4.674 0 00-1.33-1.427 7.548 7.548 0 00-1.214-.695 17.336 17.336 0 00-1.275-.515c-.433-.604-1.12-1.53-1.1-3.023.012-.962.088-1.211.104-3.994.23-.189.45-.426.638-.722.248-.386.446-.864.581-1.457a2.182 2.182 0 00-.16-1.43 2.486 2.486 0 00-.35-.545c.07-.258.157-.605.232-1.012.106-.565.194-1.242.194-1.955 0-.46-.037-.934-.131-1.404-.07-.351-.175-.7-.322-1.035a3.84 3.84 0 00-.988-1.364 4.103 4.103 0 00-1.556-.836 5.704 5.704 0 00-.819-.798A4.401 4.401 0 0013.34.207 5.343 5.343 0 0011.799 0c-.273 0-.544.016-.815.04a7.842 7.842 0 00-.655.08 4.35 4.35 0 00-.742.186c-.227.077-.445.167-.73.278-.109.04-.251.104-.422.19-.3.15-.686.37-1.1.674A7.042 7.042 0 005.5 3.42c-.265.438-.495.93-.654 1.482a6.49 6.49 0 00-.254 1.827c0 .416.036.855.114 1.314a4.644 4.644 0 00.019.272c.01.092.022.185.03.265l.01.103.002.033v.066l.114.5a2.585 2.585 0 00-.415.592 2.17 2.17 0 00-.189 1.489c.09.394.209.74.35 1.039a3.236 3.236 0 00.868 1.137c.014 2.785.09 3.035.103 3.997.018 1.494-.669 2.418-1.1 3.023-.188.069-.377.14-.567.215-.475.188-.955.398-1.412.665-.343.2-.673.43-.977.706a4.42 4.42 0 00-1.118 1.56C.15 24.34-.001 25.092 0 25.98a.94.94 0 00.07.355c.041.104.098.198.164.288.124.168.286.319.484.464.346.251.807.488 1.403.711.894.333 2.092.63 3.641.85 1.55.217 3.449.352 5.738.352 1.985 0 3.676-.102 5.1-.27a23.721 23.721 0 002.765-.479 13.12 13.12 0 001.526-.459c.326-.121.612-.249.86-.38a4.41 4.41 0 00.496-.3c.22-.156.395-.32.527-.502a1.24 1.24 0 00.162-.293.956.956 0 00.064-.338c0-.607-.07-1.15-.202-1.636zM7.114 20.495c.175-.103.344-.212.501-.336.168-.133.323-.283.46-.45l3.118 1.43-1.465 2.656-2.614-3.3zm4.631 5.848l-1.567-1.979 1.481-2.685 1.476 2.674-1.39 1.99zm1.817-2.602l-1.445-2.617L14.9 19.68c.062.078.127.152.197.222.22.224.475.41.749.571l-2.285 3.27zm3.392-10.98c-.2.176-.409.29-.63.369l-.21.077-.075.21a11.5 11.5 0 01-.68 1.57 4.463 4.463 0 01-.68.965l-.092.097-.029.127c-.104.473-.208.995-.208 1.613 0 .19.01.39.033.599.025.245.081.475.167.688l.013.03-2.913 1.511-3.227-1.478c.1-.23.167-.481.195-.751v-.001a5.82 5.82 0 00.032-.597c0-.62-.103-1.143-.208-1.616l-.029-.127-.091-.096a4.434 4.434 0 01-.681-.966 11.378 11.378 0 01-.678-1.568l-.075-.21-.212-.075a2.092 2.092 0 01-.426-.215 1.988 1.988 0 01-.582-.602c-.18-.28-.341-.654-.458-1.16a1.275 1.275 0 01.112-.858c.077-.152.184-.296.316-.427.22.329.401.589.467.654.216.214.247-.288.144-.852-.188-1.036.321-.567 1.615-3.052 2.588.567 7.11-2.15 7.11-2.15s.055 1.238.918 2.375c.818 1.077 1.284 3.609 1.284 3.609s.112-.21.278-.489c.099.115.181.239.241.368a1.264 1.264 0 01.095.822 4.15 4.15 0 01-.285.847 2.298 2.298 0 01-.551.76z"/><path d="M11.396 24.111c0 .177.145.32.324.32a.322.322 0 00.323-.32.322.322 0 00-.323-.318.322.322 0 00-.324.318z"/></g></svg>